<svg width="20" height="13" viewBox="0 0 20 13" fill="none" xmlns="http://www.w3.org/2000/svg">
<path fill-rule="evenodd" clip-rule="evenodd" d="M10.1398 0.333334C5.97316 0.333334 2.41483 2.925 0.973164 6.58333C2.41483 10.2417 5.97316 12.8333 10.1398 12.8333C14.3065 12.8333 17.8648 10.2417 19.3065 6.58333C17.8648 2.925 14.3065 0.333334 10.1398 0.333334ZM10.1398 10.75C7.83983 10.75 5.97316 8.88333 5.97316 6.58333C5.97316 4.28333 7.83983 2.41667 10.1398 2.41667C12.4398 2.41667 14.3065 4.28333 14.3065 6.58333C14.3065 8.88333 12.4398 10.75 10.1398 10.75ZM10.1398 4.08333C8.7565 4.08333 7.63983 5.2 7.63983 6.58333C7.63983 7.96667 8.7565 9.08333 10.1398 9.08333C11.5232 9.08333 12.6398 7.96667 12.6398 6.58333C12.6398 5.2 11.5232 4.08333 10.1398 4.08333Z" fill="#181C43"/>
</svg>
