<svg width="20" height="16" viewBox="0 0 20 16" fill="none" xmlns="http://www.w3.org/2000/svg">
<path fill-rule="evenodd" clip-rule="evenodd" d="M10.1399 3.41668C12.4399 3.41668 14.3065 5.28335 14.3065 7.58335C14.3065 8.00835 14.2232 8.41668 14.1065 8.80001L16.6565 11.35C17.8149 10.325 18.7315 9.04168 19.3065 7.57501C17.8649 3.92501 14.3065 1.33335 10.1399 1.33335C9.08152 1.33335 8.06485 1.50001 7.10652 1.80835L8.91485 3.61668C9.30652 3.50001 9.71485 3.41668 10.1399 3.41668ZM2.39818 0.633337C2.07318 0.958337 2.07318 1.48334 2.39818 1.80834L4.03984 3.45C2.68984 4.525 1.61484 5.94167 0.973175 7.58334C2.41484 11.2417 5.97318 13.8333 10.1398 13.8333C11.4065 13.8333 12.6148 13.5833 13.7315 13.15L15.9982 15.4167C16.3232 15.7417 16.8482 15.7417 17.1732 15.4167C17.4982 15.0917 17.4982 14.5667 17.1732 14.2417L3.58151 0.633337C3.25651 0.308337 2.72318 0.308337 2.39818 0.633337ZM10.1399 11.75C7.83986 11.75 5.97319 9.88334 5.97319 7.58334C5.97319 6.94167 6.12319 6.33334 6.38152 5.8L7.68986 7.10834C7.66486 7.25834 7.63986 7.41667 7.63986 7.58334C7.63986 8.96667 8.75652 10.0833 10.1399 10.0833C10.3065 10.0833 10.4565 10.0583 10.6149 10.025L11.9232 11.3333C11.3815 11.6 10.7815 11.75 10.1399 11.75ZM12.6149 7.30835C12.4899 6.14168 11.5732 5.23335 10.4149 5.10835L12.6149 7.30835Z" fill="#181C43"/>
</svg>
