<svg width="12" height="12" viewBox="0 0 12 12" fill="none" xmlns="http://www.w3.org/2000/svg">
<path d="M6.13983 0.166666C2.92324 0.166666 0.306499 2.7834 0.306499 6C0.306499 9.2166 2.92324 11.8333 6.13983 11.8333C9.35643 11.8333 11.9732 9.2166 11.9732 6C11.9732 2.7834 9.35643 0.166666 6.13983 0.166666ZM5.89678 9.40278C5.49428 9.40278 5.16761 9.07611 5.16761 8.67361C5.16761 8.27111 5.49428 7.94444 5.89678 7.94444C6.29928 7.94444 6.62594 8.27111 6.62594 8.67361C6.62594 9.07611 6.29928 9.40278 5.89678 9.40278ZM7.9924 5.08951C7.84219 5.33014 7.55685 5.60042 7.13587 5.90083C6.45483 6.40444 6.47331 6.51625 6.47331 6.97222H5.27893C5.27893 6.6159 5.27115 6.34222 5.46365 6.00924C5.58664 5.79583 5.81219 5.56882 6.13983 5.32868C6.5331 5.04771 6.91518 4.77694 6.91518 4.30542C6.91518 3.86354 6.53699 3.70604 6.09511 3.70604C5.64449 3.70604 5.13067 3.85333 4.55365 4.14792L4.06219 3.16111C5.11074 2.5734 6.76546 2.3075 7.67011 3.04396C8.33414 3.585 8.33803 4.53632 7.9924 5.08951Z" fill="#1E1A3E"/>
</svg>
